<svg width="100" viewBox="0 0 459 323" fill="none" xmlns="http://www.w3.org/2000/svg">
<g clip-path="url(#clip0)">
<path d="M0.284363 230.112H12.7844L33.7844 282.112L52.7844 230.112H64.7844L38.3844 296.112H29.2844L0.284363 230.112Z" fill="#1D0F68"/>
<path d="M82.7633 296.112H71.7633V250.112H82.7633V296.112ZM70.1633 235.312C70.1633 234.378 70.3299 233.478 70.6633 232.612C71.0633 231.745 71.5966 230.978 72.2633 230.312C72.9299 229.578 73.6633 229.012 74.4633 228.612C75.3299 228.212 76.2633 228.012 77.2633 228.012C78.1966 228.012 79.0966 228.212 79.9633 228.612C80.8299 229.012 81.5966 229.578 82.2633 230.312C82.9966 230.978 83.5633 231.745 83.9633 232.612C84.3633 233.478 84.5633 234.378 84.5633 235.312C84.5633 236.312 84.3633 237.245 83.9633 238.112C83.5633 238.912 82.9966 239.645 82.2633 240.312C81.5966 240.978 80.8299 241.512 79.9633 241.912C79.0966 242.245 78.1966 242.412 77.2633 242.412C75.3299 242.412 73.6633 241.712 72.2633 240.312C70.8633 238.912 70.1633 237.245 70.1633 235.312Z" fill="#1D0F68"/>
<path d="M110.568 256.812C108.368 256.812 106.635 257.245 105.368 258.112C104.168 258.912 103.568 260.078 103.568 261.612C103.568 262.612 103.901 263.545 104.568 264.412C105.301 265.212 106.801 265.878 109.068 266.412L116.168 268.012C118.968 268.612 121.201 269.478 122.868 270.612C124.601 271.745 125.935 272.978 126.868 274.312C127.868 275.645 128.535 277.012 128.868 278.412C129.201 279.812 129.368 281.112 129.368 282.312C129.368 284.445 128.935 286.445 128.068 288.312C127.201 290.112 125.968 291.678 124.368 293.012C122.768 294.345 120.835 295.378 118.568 296.112C116.301 296.912 113.768 297.312 110.968 297.312C107.435 297.312 104.168 296.812 101.168 295.812C98.168 294.745 95.768 293.578 93.968 292.312L96.568 282.812C98.8346 285.012 101.368 286.645 104.168 287.712C107.035 288.778 109.668 289.312 112.068 289.312C114.601 289.312 116.535 288.778 117.868 287.712C119.201 286.578 119.868 285.045 119.868 283.112C119.868 281.978 119.535 281.045 118.868 280.312C118.201 279.512 116.868 278.845 114.868 278.312L105.268 275.912C103.001 275.378 101.135 274.612 99.668 273.612C98.268 272.612 97.1346 271.512 96.268 270.312C95.4679 269.045 94.9013 267.745 94.568 266.412C94.3013 265.078 94.168 263.812 94.168 262.612C94.168 258.145 95.7346 254.712 98.868 252.312C102.001 249.845 106.068 248.612 111.068 248.612C113.668 248.612 116.468 248.978 119.468 249.712C122.468 250.378 125.001 251.378 127.068 252.712L124.168 261.712C122.835 260.645 120.968 259.578 118.568 258.512C116.168 257.378 113.501 256.812 110.568 256.812Z" fill="#1D0F68"/>
<path d="M150.43 250.112V280.012C150.43 282.745 151.13 284.845 152.53 286.312C153.996 287.712 155.863 288.412 158.13 288.412C160.463 288.412 162.596 287.645 164.53 286.112C166.463 284.512 167.896 282.245 168.83 279.312V250.112H179.93V296.112H171.33L170.73 289.712H170.33C169.596 291.245 168.663 292.512 167.53 293.512C166.396 294.445 165.13 295.212 163.73 295.812C162.396 296.345 160.996 296.712 159.53 296.912C158.063 297.178 156.63 297.312 155.23 297.312C153.03 297.312 150.963 297.045 149.03 296.512C147.163 295.978 145.496 295.112 144.03 293.912C142.63 292.645 141.496 291.012 140.63 289.012C139.83 286.945 139.43 284.412 139.43 281.412V250.112H150.43Z" fill="#1D0F68"/>
<path d="M221.736 296.112L220.936 289.812H220.536C218.736 292.078 216.269 293.912 213.136 295.312C210.069 296.645 206.936 297.312 203.736 297.312C199.536 297.312 196.236 296.112 193.836 293.712C191.436 291.245 190.236 288.012 190.236 284.012C190.236 281.278 190.803 278.845 191.936 276.712C193.136 274.512 194.836 272.678 197.036 271.212C199.236 269.678 201.869 268.512 204.936 267.712C208.003 266.912 211.436 266.512 215.236 266.512H219.536V265.012C219.536 262.412 218.703 260.512 217.036 259.312C215.303 258.112 212.603 257.512 208.936 257.512C204.003 257.512 199.603 258.612 195.736 260.812L193.636 252.512C198.103 249.912 203.503 248.612 209.836 248.612C216.503 248.612 221.569 249.978 225.036 252.712C226.636 253.978 227.936 255.612 228.936 257.612C230.003 259.612 230.536 262.012 230.536 264.812V296.112H221.736ZM208.036 288.412C210.169 288.412 212.303 287.912 214.436 286.912C216.569 285.845 218.269 284.445 219.536 282.712V273.612H217.636C212.169 273.612 208.169 274.312 205.636 275.712C203.169 277.112 201.936 279.345 201.936 282.412C201.936 286.412 203.969 288.412 208.036 288.412Z" fill="#1D0F68"/>
<path d="M255.434 296.112H244.434V222.112H255.434V296.112Z" fill="#1D0F68"/>
<path d="M302.722 266.112H282.722V286.112H311.422V296.112H271.222V230.112H309.422V240.112H282.722V256.112H302.722V266.112Z" fill="#1D0F68"/>
<path d="M340.589 282.812L353.389 250.112H363.989L344.989 296.512C344.056 298.845 342.756 301.445 341.089 304.312C339.489 307.245 337.556 309.978 335.289 312.512C333.089 315.112 330.589 317.278 327.789 319.012C324.989 320.812 321.956 321.712 318.689 321.712C318.156 321.712 317.756 321.678 317.489 321.612C317.222 321.612 316.922 321.545 316.589 321.412L314.689 312.812C314.889 312.878 315.122 312.945 315.389 313.012C315.656 313.078 316.222 313.112 317.089 313.112C318.356 313.112 319.589 312.978 320.789 312.712C322.056 312.445 323.322 311.912 324.589 311.112C326.989 309.578 329.056 307.445 330.789 304.712C332.589 301.978 334.322 298.612 335.989 294.612L313.089 250.112H324.589L340.589 282.812Z" fill="#1D0F68"/>
<path d="M392.566 248.612C398.432 248.612 402.966 250.112 406.166 253.112C409.366 256.045 410.966 260.212 410.966 265.612C410.966 266.345 410.899 267.145 410.766 268.012C410.699 268.812 410.566 269.612 410.366 270.412C410.232 271.212 410.032 271.945 409.766 272.612C409.566 273.212 409.332 273.712 409.066 274.112H379.966C380.099 276.112 380.466 278.012 381.066 279.812C381.666 281.545 382.532 283.078 383.666 284.412C384.799 285.678 386.166 286.712 387.766 287.512C389.432 288.245 391.366 288.612 393.566 288.612C396.032 288.612 398.632 288.145 401.366 287.212C404.166 286.278 406.532 285.112 408.466 283.712L410.266 291.912C409.399 292.445 408.332 293.045 407.066 293.712C405.799 294.312 404.366 294.878 402.766 295.412C401.166 295.945 399.432 296.378 397.566 296.712C395.766 297.112 393.866 297.312 391.866 297.312C388.132 297.312 384.832 296.678 381.966 295.412C379.099 294.078 376.699 292.312 374.766 290.112C372.832 287.845 371.366 285.245 370.366 282.312C369.366 279.378 368.866 276.312 368.866 273.112C368.866 269.845 369.366 266.745 370.366 263.812C371.432 260.812 372.966 258.178 374.966 255.912C376.966 253.645 379.432 251.878 382.366 250.612C385.366 249.278 388.766 248.612 392.566 248.612ZM392.266 257.212C389.466 257.212 387.066 258.045 385.066 259.712C383.132 261.312 381.732 263.512 380.866 266.312H399.966C400.032 266.112 400.066 265.878 400.066 265.612C400.132 265.345 400.166 265.012 400.166 264.612C400.166 262.478 399.432 260.712 397.966 259.312C396.499 257.912 394.599 257.212 392.266 257.212Z" fill="#1D0F68"/>
<path d="M436.154 256.812C433.954 256.812 432.221 257.245 430.954 258.112C429.754 258.912 429.154 260.078 429.154 261.612C429.154 262.612 429.487 263.545 430.154 264.412C430.887 265.212 432.387 265.878 434.654 266.412L441.754 268.012C444.554 268.612 446.787 269.478 448.454 270.612C450.187 271.745 451.521 272.978 452.454 274.312C453.454 275.645 454.121 277.012 454.454 278.412C454.787 279.812 454.954 281.112 454.954 282.312C454.954 284.445 454.521 286.445 453.654 288.312C452.787 290.112 451.554 291.678 449.954 293.012C448.354 294.345 446.421 295.378 444.154 296.112C441.887 296.912 439.354 297.312 436.554 297.312C433.021 297.312 429.754 296.812 426.754 295.812C423.754 294.745 421.354 293.578 419.554 292.312L422.154 282.812C424.421 285.012 426.954 286.645 429.754 287.712C432.621 288.778 435.254 289.312 437.654 289.312C440.187 289.312 442.121 288.778 443.454 287.712C444.787 286.578 445.454 285.045 445.454 283.112C445.454 281.978 445.121 281.045 444.454 280.312C443.787 279.512 442.454 278.845 440.454 278.312L430.854 275.912C428.587 275.378 426.721 274.612 425.254 273.612C423.854 272.612 422.721 271.512 421.854 270.312C421.054 269.045 420.487 267.745 420.154 266.412C419.887 265.078 419.754 263.812 419.754 262.612C419.754 258.145 421.321 254.712 424.454 252.312C427.587 249.845 431.654 248.612 436.654 248.612C439.254 248.612 442.054 248.978 445.054 249.712C448.054 250.378 450.587 251.378 452.654 252.712L449.754 261.712C448.421 260.645 446.554 259.578 444.154 258.512C441.754 257.378 439.087 256.812 436.154 256.812Z" fill="#1D0F68"/>
<path fill-rule="evenodd" clip-rule="evenodd" d="M280.853 141.28C310.737 110.365 318.497 74.6442 304.135 34.1168C288.034 -2.5232 252.255 -9.55379 196.797 13.025C141.338 35.6038 134.012 70.353 174.818 117.273C215.624 164.192 250.969 172.195 280.853 141.28ZM260.682 110.265C281.466 88.7494 286.848 63.8735 276.828 35.6373C265.65 10.181 240.753 5.28224 202.138 20.9411C163.523 36.6 158.43 60.7811 186.861 93.4842C215.291 126.187 239.898 131.781 260.682 110.265Z" fill="#3E21DE"/>
<path fill-rule="evenodd" clip-rule="evenodd" d="M243.463 83.6548C256.031 70.5944 259.232 55.4431 253.067 38.2011C246.257 22.7248 231.132 19.6884 207.691 29.0921C184.249 38.4957 181.21 53.2055 198.571 73.2215C215.932 93.2374 230.896 96.7152 243.463 83.6548ZM230.396 63.3774C236.216 57.2653 237.631 50.1105 234.643 41.9128C231.361 34.5474 224.251 33.0244 213.311 37.3438C202.371 41.6632 201.029 48.6099 209.284 58.1841C217.539 67.7583 224.576 69.4894 230.396 63.3774Z" fill="#3E21DE"/>
</g>
<defs>
<clipPath id="clip0">
<rect width="459" height="322" fill="white" transform="translate(0 0.111816)"/>
</clipPath>
</defs>
</svg>
